<?xml version="1.0" encoding="UTF-8"?>
<svg version="1.1" xmlns="http://www.w3.org/2000/svg" width="256" height="256">
<path d="M0 0 C0.99 0.33 1.98 0.66 3 1 C2.67 12.88 2.34 24.76 2 37 C3.65 37 5.3 37 7 37 C7 37.66 7 38.32 7 39 C8.11375 39.185625 8.11375 39.185625 9.25 39.375 C11.80141485 39.95486701 13.7267573 40.73708739 16 42 C16 42.66 16 43.32 16 44 C16.598125 44.2475 17.19625 44.495 17.8125 44.75 C20.29482087 46.16846907 21.36328035 47.69264738 23 50 C31.76159417 38.4809932 31.76159417 38.4809932 39 26 C39.99 26 40.98 26 42 26 C42.75 28.1796875 42.75 28.1796875 43 31 C41.375 33.5078125 41.375 33.5078125 39 36.125 C35.72658202 39.92175439 32.66014363 43.7029225 29.875 47.875 C29.29492188 48.73867187 28.71484375 49.60234375 28.1171875 50.4921875 C26.05434373 55.12276686 28.32908417 59.04734141 30 63.5625 C32.12710624 69.76655988 32.68874122 75.46356554 33 82 C40.92 82 48.84 82 57 82 C57 83.98 57 85.96 57 88 C55.515 88.495 55.515 88.495 54 89 C54 88.34 54 87.68 54 87 C51.22882696 87.14080555 48.45817359 87.28743118 45.6875 87.4375 C44.90181641 87.47681641 44.11613281 87.51613281 43.30664062 87.55664062 C42.54931641 87.59853516 41.79199219 87.64042969 41.01171875 87.68359375 C40.31522217 87.72025146 39.61872559 87.75690918 38.90112305 87.79467773 C36.7783428 87.95581153 36.7783428 87.95581153 34 89 C33.82984375 90.03898437 33.6596875 91.07796875 33.484375 92.1484375 C32.2323769 99.45263648 30.96465018 106.1699346 27.671875 112.88671875 C26.75790196 115.76148278 27.02594578 117.13241795 28 120 C29.51994155 122.43190649 31.05144182 124.70252825 32.75 127 C33.18054688 127.60328125 33.61109375 128.2065625 34.0546875 128.828125 C36.16266707 131.73133039 38.23717417 134.23321577 40.80859375 136.76171875 C43 139 43 139 43.3125 141.8125 C43.209375 142.534375 43.10625 143.25625 43 144 C41.68 144.33 40.36 144.66 39 145 C38.52433594 144.16082031 38.52433594 144.16082031 38.0390625 143.3046875 C33.50496827 135.51406151 28.30427023 128.27502676 23 121 C22.39865234 121.77923828 22.39865234 121.77923828 21.78515625 122.57421875 C16.53221705 129.01830063 11.11780657 132.97054836 3 135 C3.33 146.22 3.66 157.44 4 169 C2.02 169.99 2.02 169.99 0 171 C-1 170 -1 170 -1.02172852 166.58178711 C-0.97938986 165.06348325 -0.93136589 163.54533161 -0.87890625 162.02734375 C-0.84348976 160.83087975 -0.84348976 160.83087975 -0.80735779 159.61024475 C-0.7305374 157.05249027 -0.64659285 154.49502473 -0.5625 151.9375 C-0.50929767 150.20769662 -0.45655717 148.47787897 -0.40429688 146.74804688 C-0.27489758 142.49851356 -0.13910688 138.24922618 0 134 C-0.77601562 133.85046875 -1.55203125 133.7009375 -2.3515625 133.546875 C-8.95708178 132.18290347 -14.47214658 128.85402806 -18.9375 123.8125 C-20 122 -20 122 -20 120 C-20.66 120 -21.32 120 -22 120 C-22.2165625 120.65871094 -22.433125 121.31742187 -22.65625 121.99609375 C-24.46565278 126.04095054 -26.94258633 129.45767013 -29.5 133.0625 C-30.49194148 134.46839122 -31.48160442 135.87589345 -32.46875 137.28515625 C-32.90638672 137.90269775 -33.34402344 138.52023926 -33.79492188 139.15649414 C-35.02879653 141.04405239 -36.03122137 142.96550869 -37 145 C-38.32 144.34 -39.64 143.68 -41 143 C-40.50185697 138.51671271 -39.12854762 137.11242109 -36 134 C-34.2090692 131.74572617 -32.54183284 129.40942042 -30.875 127.0625 C-30.43285156 126.45470703 -29.99070312 125.84691406 -29.53515625 125.22070312 C-26.11195972 120.44322972 -26.11195972 120.44322972 -24 115 C-24.51754806 113.07071464 -24.51754806 113.07071464 -25.6875 111.25 C-29.18573216 104.28911092 -29.79959029 96.62260169 -31 89 C-38.92 89 -46.84 89 -55 89 C-55 87.02 -55 85.04 -55 83 C-51.88248002 82.06285078 -49.25850091 81.94313105 -46.015625 82.12109375 C-44.61376953 82.19360352 -44.61376953 82.19360352 -43.18359375 82.26757812 C-42.21550781 82.32365234 -41.24742188 82.37972656 -40.25 82.4375 C-39.26644531 82.48970703 -38.28289062 82.54191406 -37.26953125 82.59570312 C-34.84601151 82.72511437 -32.42293136 82.86006905 -30 83 C-30.01522705 82.42209717 -30.0304541 81.84419434 -30.04614258 81.2487793 C-30.18691094 71.98392261 -28.13930119 64.27860237 -24 56 C-24.39336846 52.17285266 -26.48388234 49.6990511 -28.75 46.6875 C-29.47058594 45.72199219 -30.19117187 44.75648437 -30.93359375 43.76171875 C-31.61550781 42.85035156 -32.29742187 41.93898437 -33 41 C-33.94193046 39.66979286 -34.88028328 38.33703254 -35.8125 37 C-37.77109156 34.11739 -37.77109156 34.11739 -39.65625 32.44921875 C-40.0996875 31.97097656 -40.543125 31.49273437 -41 31 C-40.6875 28.8125 -40.6875 28.8125 -40 27 C-38.68 27 -37.36 27 -36 27 C-35.63261719 27.73089844 -35.63261719 27.73089844 -35.2578125 28.4765625 C-31.212178 36.14931759 -26.11401177 43.01912568 -21 50 C-20.14341797 48.85917969 -20.14341797 48.85917969 -19.26953125 47.6953125 C-17.17278017 45.20519504 -15.39299516 43.63381213 -12.6875 41.875 C-11.96949219 41.39804688 -11.25148437 40.92109375 -10.51171875 40.4296875 C-7.44309175 38.68300401 -4.25092006 37.37178238 -1 36 C-1.00523682 34.94498291 -1.01047363 33.88996582 -1.01586914 32.80297852 C-1.03391901 28.9024337 -1.04543195 25.0018926 -1.05493164 21.10131836 C-1.0599719 19.41055684 -1.06680405 17.71979971 -1.07543945 16.02905273 C-1.08751857 13.60399293 -1.09323123 11.17899056 -1.09765625 8.75390625 C-1.10281754 7.99348526 -1.10797882 7.23306427 -1.11329651 6.44960022 C-1.11349238 4.6326743 -1.06197277 2.81586873 -1 1 C-0.67 0.67 -0.34 0.34 0 0 Z M-4 42 C-4 42.66 -4 43.32 -4 44 C-5.65 44.33 -7.3 44.66 -9 45 C-8.67 46.98 -8.34 48.96 -8 51 C-2.06 51 3.88 51 10 51 C10.66 49.02 11.32 47.04 12 45 C6.62669111 41.60633122 2.13053511 41.67287658 -4 42 Z M-13 47 C-13.33 47.99 -13.66 48.98 -14 50 C-14.99 50.33 -15.98 50.66 -17 51 C-20.90302226 56.18416697 -23.6247949 61.67405652 -25 68 C-23.02 68.99 -23.02 68.99 -21 70 C-20.01780373 68.23084525 -19.03934641 66.45961431 -18.0625 64.6875 C-17.51722656 63.70136719 -16.97195312 62.71523437 -16.41015625 61.69921875 C-14.91645768 59.01437784 -14.91645768 59.01437784 -14 56 C-13.34 56 -12.68 56 -12 56 C-12 55.34 -12 54.68 -12 54 C-11.34 54 -10.68 54 -10 54 C-10.66 51.69 -11.32 49.38 -12 47 C-12.33 47 -12.66 47 -13 47 Z M14 47 C12.95785309 51.61507774 12.95785309 51.61507774 14 56 C14.66 56 15.32 56 16 56 C16.226875 56.639375 16.45375 57.27875 16.6875 57.9375 C18.48565826 62.13320261 20.73904021 66.03900556 23 70 C24.32 69.34 25.64 68.68 27 68 C26.61635825 60.71080674 22.20063758 54.00506208 17.1875 48.875 C15.35364184 46.89153477 15.35364184 46.89153477 14 47 Z M-27 73 C-27.02892857 76.95831809 -27.04677427 80.91660917 -27.0625 84.875 C-27.07087891 86.00292969 -27.07925781 87.13085938 -27.08789062 88.29296875 C-27.09111328 89.36933594 -27.09433594 90.44570312 -27.09765625 91.5546875 C-27.10289307 92.54968262 -27.10812988 93.54467773 -27.11352539 94.56982422 C-27.1639415 97.00960773 -27.1639415 97.00960773 -26 99 C-24.68 98.67 -23.36 98.34 -22 98 C-22 90.41 -22 82.82 -22 75 C-22.66 75 -23.32 75 -24 75 C-24 74.34 -24 73.68 -24 73 C-24.99 73 -25.98 73 -27 73 Z M28 72 C27.01 72.33 26.02 72.66 25 73 C23.56120836 77.31637492 23.77547366 81.47842583 23.75 86 C23.729375 86.91523438 23.70875 87.83046875 23.6875 88.7734375 C23.68234375 89.65257812 23.6771875 90.53171875 23.671875 91.4375 C23.6625293 92.24058594 23.65318359 93.04367188 23.64355469 93.87109375 C24.08545283 96.51037582 24.88968729 97.40217346 27 99 C27.66 99 28.32 99 29 99 C30.27955991 94.49186474 30.18398886 90.15577726 30.1875 85.5 C30.19974609 84.64535156 30.21199219 83.79070312 30.22460938 82.91015625 C30.22654297 82.08386719 30.22847656 81.25757813 30.23046875 80.40625 C30.23457764 79.65666016 30.23868652 78.90707031 30.24291992 78.13476562 C29.96836704 75.72201143 29.19750325 74.09540822 28 72 Z M-21 101 C-22.32 102.32 -23.64 103.64 -25 105 C-21.68913163 112.1500668 -18.45909074 118.28095256 -13 124 C-10.74213947 121.2742853 -10.74213947 121.2742853 -11.16015625 118.66015625 C-12.15341623 115.514063 -13.60434541 113.17770406 -15.4375 110.4375 C-17.4868462 107.35278474 -19.4282198 104.356817 -21 101 Z M23 101 C22.52949219 101.90363281 22.05898437 102.80726563 21.57421875 103.73828125 C20.94560122 104.92983986 20.31667891 106.12123772 19.6875 107.3125 C19.37876953 107.90740234 19.07003906 108.50230469 18.75195312 109.11523438 C17.44147443 111.58445212 16.27366559 113.73610818 14.25 115.6875 C13.8375 116.120625 13.425 116.55375 13 117 C13.23477199 120.64541845 13.23477199 120.64541845 14 124 C14.99 123.67 15.98 123.34 17 123 C17 122.34 17 121.68 17 121 C17.99 120.67 18.98 120.34 20 120 C21.66055854 117.66327527 21.66055854 117.66327527 23.125 114.8125 C23.64320313 113.87019531 24.16140625 112.92789063 24.6953125 111.95703125 C26.03011495 108.93174545 26.60268991 106.27054038 27 103 C25.68 102.34 24.36 101.68 23 101 Z M-8 120 C-8.66 121.98 -9.32 123.96 -10 126 C-4.42531458 129.61601216 0.60567654 129.30720059 7 129 C7 128.34 7 127.68 7 127 C8.65 126.67 10.3 126.34 12 126 C11.34 124.02 10.68 122.04 10 120 C4.06 120 -1.88 120 -8 120 Z " fill="#272F59" transform="translate(127,58)"/>
<path d="M0 0 C1.32 0 2.64 0 4 0 C4.495 2.475 4.495 2.475 5 5 C5.99 5.33 6.98 5.66 8 6 C10.6469731 9.54098388 10.22871199 13.5297198 10.125 17.75 C10.11597656 18.44738281 10.10695313 19.14476563 10.09765625 19.86328125 C10.07419888 21.57566958 10.03833104 23.28788004 10 25 C8.83597656 24.73896484 8.83597656 24.73896484 7.6484375 24.47265625 C4.70804494 23.94789593 2.90086464 24.37838615 0 25 C-6.3877551 25.44053483 -6.3877551 25.44053483 -8.69921875 23.77734375 C-10.38184267 21.47826302 -10.30998217 20.12958986 -10.1875 17.3125 C-10.14689453 16.10013672 -10.14689453 16.10013672 -10.10546875 14.86328125 C-10.05326172 13.94095703 -10.05326172 13.94095703 -10 13 C-10.99 13 -11.98 13 -13 13 C-12.505 13.99 -12.505 13.99 -12 15 C-11.86642547 18.67329964 -11.8328432 21.49852959 -13 25 C-13.969375 24.814375 -14.93875 24.62875 -15.9375 24.4375 C-17.4534375 24.2209375 -17.4534375 24.2209375 -19 24 C-19.495 24.495 -19.495 24.495 -20 25 C-22.9375 25.1875 -22.9375 25.1875 -26 25 C-26.66 24.34 -27.32 23.68 -28 23 C-28.66 23.66 -29.32 24.32 -30 25 C-35.29577465 25.56338028 -35.29577465 25.56338028 -37.875 23.5 C-38.24625 23.005 -38.6175 22.51 -39 22 C-39.66 22.99 -40.32 23.98 -41 25 C-43.9375 25.1875 -43.9375 25.1875 -47 25 C-47.99 25 -48.98 25 -50 25 C-51.19625 24.814375 -52.3925 24.62875 -53.625 24.4375 C-54.73875 24.293125 -55.8525 24.14875 -57 24 C-57.33 24.33 -57.66 24.66 -58 25 C-59.66617115 25.04063832 -61.33388095 25.042721 -63 25 C-63.66 23.68 -64.32 22.36 -65 21 C-65.33 22.32 -65.66 23.64 -66 25 C-67.65 24.67 -69.3 24.34 -71 24 C-71 16.74 -71 9.48 -71 2 C-68.03 2 -65.06 2 -62 2 C-59 5 -59 5 -58 8 C-57.34 8 -56.68 8 -56 8 C-56 7.34 -56 6.68 -56 6 C-52.28400809 5.79913557 -51.22791555 5.8480563 -48 8 C-47.34 7.34 -46.68 6.68 -46 6 C-43 5.75 -43 5.75 -40 6 C-39.34 6.66 -38.68 7.32 -38 8 C-37.34 8 -36.68 8 -36 8 C-36 7.34 -36 6.68 -36 6 C-33.625 5.875 -33.625 5.875 -31 6 C-30.34 6.66 -29.68 7.32 -29 8 C-28.34 7.34 -27.68 6.68 -27 6 C-23.5 5.75 -23.5 5.75 -20 6 C-19.34 6.66 -18.68 7.32 -18 8 C-17.34 7.34 -16.68 6.68 -16 6 C-11.94738713 5.65509678 -10.45245824 5.69836118 -7 8 C-7 7.34 -7 6.68 -7 6 C-5.02 6 -3.04 6 -1 6 C-0.67 4.02 -0.34 2.04 0 0 Z M-40 11 C-40.33 11.99 -40.66 12.98 -41 14 C-40.01 14.495 -40.01 14.495 -39 15 C-39.33 13.68 -39.66 12.36 -40 11 Z M-28 11 C-27 14 -27 14 -27 14 Z M-5 13 C-5 14.32 -5 15.64 -5 17 C-3.68 17.33 -2.36 17.66 -1 18 C-1 16.35 -1 14.7 -1 13 C-2.32 13 -3.64 13 -5 13 Z M-60 14 C-59 17 -59 17 -59 17 Z M-48 16 C-47 18 -47 18 -47 18 Z " fill="#262F58" transform="translate(155,13)"/>
<path d="M0 0 C3.42373218 0.85419687 4.86522179 2.71343177 6.92578125 5.48046875 C8.72147507 8.78946905 9.92578125 11.65105926 9.92578125 15.48046875 C11.24578125 15.81046875 12.56578125 16.14046875 13.92578125 16.48046875 C13.64129985 18.68973919 13.34787165 20.89785854 13.05078125 23.10546875 C12.88835937 24.33523437 12.7259375 25.565 12.55859375 26.83203125 C11.96437233 30.25797452 11.29794024 33.28516146 9.92578125 36.48046875 C8.44078125 36.97546875 8.44078125 36.97546875 6.92578125 37.48046875 C6.43078125 37.97546875 5.93578125 38.47046875 5.42578125 38.98046875 C3.92578125 40.48046875 3.92578125 40.48046875 0.92578125 41.48046875 C-1.21276725 39.34192025 -1.50076938 38.34771561 -2.07421875 35.48046875 C-2.07421875 37.46046875 -2.07421875 39.44046875 -2.07421875 41.48046875 C-5.1131979 41.4081121 -7.3142116 41.10742908 -9.703125 39.13671875 C-15.72476559 32.49631309 -17.4598039 26.24373248 -17.1796875 17.38671875 C-17.14488281 16.75765625 -17.11007813 16.12859375 -17.07421875 15.48046875 C-16.08421875 15.15046875 -15.09421875 14.82046875 -14.07421875 14.48046875 C-13.23124143 12.54414568 -13.23124143 12.54414568 -12.69921875 10.23046875 C-10.59867067 3.47639878 -7.39739786 -0.51544957 0 0 Z " fill="#28305A" transform="translate(105.07421875,206.51953125)"/>
<path d="M0 0 C0.90105469 0.02707031 1.80210937 0.05414063 2.73046875 0.08203125 C3.76107422 0.13423828 3.76107422 0.13423828 4.8125 0.1875 C5.1425 1.1775 5.4725 2.1675 5.8125 3.1875 C6.4725 3.1875 7.1325 3.1875 7.8125 3.1875 C10.46377889 7.76698171 11.47574481 11.95617411 12.28515625 17.11328125 C12.45917969 17.79777344 12.63320312 18.48226562 12.8125 19.1875 C13.4725 19.5175 14.1325 19.8475 14.8125 20.1875 C14.13981865 26.77977724 12.49702132 31.66071802 8.8125 37.1875 C8.1525 37.1875 7.4925 37.1875 6.8125 37.1875 C6.8125 37.8475 6.8125 38.5075 6.8125 39.1875 C2.18909094 40.72863635 -2.35929344 40.68922628 -7.1875 40.1875 C-9.625 38.6875 -9.625 38.6875 -11.1875 36.1875 C-11.55488281 35.60484375 -11.92226562 35.0221875 -12.30078125 34.421875 C-15.12432643 29.49279957 -15.58984598 25.82034375 -15.1875 20.1875 C-14.1975 19.8575 -13.2075 19.5275 -12.1875 19.1875 C-12.27 18.218125 -12.3525 17.24875 -12.4375 16.25 C-12.44861127 10.79436453 -10.11037011 5.75704964 -6.875 1.43359375 C-4.52635398 -0.30070736 -2.88209872 -0.11228956 0 0 Z " fill="#282F59" transform="translate(184.1875,158.8125)"/>
<path d="M0 0 C5.04855072 3.4778905 6.72070395 8.21270834 8 14 C8.1875 17.5625 8.1875 17.5625 8 20 C8.99 20.33 9.98 20.66 11 21 C10.40380045 25.86896303 9.43023178 30.32790951 8 35 C7.34 35 6.68 35 6 35 C6 35.66 6 36.32 6 37 C5.01 37 4.02 37 3 37 C3 37.66 3 38.32 3 39 C-1.79137588 40.6290678 -5.05632546 41.20577428 -10 40 C-10.495 38.515 -10.495 38.515 -11 37 C-11.99 36.67 -12.98 36.34 -14 36 C-14 35.34 -14 34.68 -14 34 C-14.66 34 -15.32 34 -16 34 C-19.7264813 25.51541263 -19.7264813 25.51541263 -18 21 C-17.34 20.34 -16.68 19.68 -16 19 C-15.64914306 16.76733751 -15.64914306 16.76733751 -15.5625 14.25 C-15.22125531 9.88965115 -14.29610293 6.79356136 -12 3 C-11.34 3 -10.68 3 -10 3 C-10 2.34 -10 1.68 -10 1 C-6.76759213 -0.61620393 -3.49489224 -0.57128046 0 0 Z M-10 32 C-9 34 -9 34 -9 34 Z M-4 34 C-2.515 34.99 -2.515 34.99 -1 36 C-1 35.34 -1 34.68 -1 34 C-1.99 34 -2.98 34 -4 34 Z " fill="#28305A" transform="translate(157,46)"/>
<path d="M0 0 C1.051875 -0.00386719 1.051875 -0.00386719 2.125 -0.0078125 C4 0.125 4 0.125 6 1.125 C6 1.785 6 2.445 6 3.125 C6.66 3.125 7.32 3.125 8 3.125 C11.07708804 9.05938408 12.48736475 13.42373464 12 20.125 C12.99 20.125 13.98 20.125 15 20.125 C14.58846263 25.09593824 14.20399168 29.57008386 12 34.125 C11.34 34.125 10.68 34.125 10 34.125 C9.67 35.115 9.34 36.105 9 37.125 C8.34 37.125 7.68 37.125 7 37.125 C7 37.785 7 38.445 7 39.125 C0.61418824 40.22600203 -3.40211768 40.18093276 -9.1875 36.875 C-13.81612651 32.4059813 -14.47405588 27.22595179 -15 21.125 C-14.01 20.465 -13.02 19.805 -12 19.125 C-11.34309765 16.44511209 -11.34309765 16.44511209 -11.0625 13.375 C-10.3198017 8.17611191 -9.42878581 5.08953359 -6 1.125 C-3.75487738 0.00243869 -2.48543351 -0.00913762 0 0 Z " fill="#28305A" transform="translate(72,93.875)"/>
<path d="M0 0 C3.94370177 1.31456726 4.83713915 3.06268961 6.921875 6.53515625 C9.17915604 11.69582413 9.78336592 17.64990224 8 23 C8.99 23.33 9.98 23.66 11 24 C10.56232753 29.47090585 9.283511 32.62198533 6 37 C5.34 37.99 4.68 38.98 4 40 C0.875 40.1875 0.875 40.1875 -2 40 C-2 40.66 -2 41.32 -2 42 C-2.66 42 -3.32 42 -4 42 C-4 41.34 -4 40.68 -4 40 C-6.31 39.67 -8.62 39.34 -11 39 C-11 38.34 -11 37.68 -11 37 C-11.66 37 -12.32 37 -13 37 C-13 36.01 -13 35.02 -13 34 C-13.66 34 -14.32 34 -15 34 C-17.32590854 30.36576791 -17.16265833 27.22911669 -17 23 C-16.34 22.67 -15.68 22.34 -15 22 C-15.03480469 21.443125 -15.06960937 20.88625 -15.10546875 20.3125 C-15.34136322 13.66252249 -13.98721488 8.97442976 -11 3 C-10.34 3 -9.68 3 -9 3 C-9 2.34 -9 1.68 -9 1 C-6.01002175 -0.49498913 -3.29957225 -0.11577446 0 0 Z " fill="#282F59" transform="translate(187,94)"/>
<path d="M0 0 C3.51551024 0.86283314 4.85828082 2.57815565 6.92578125 5.47265625 C10.29638311 12.01713223 10.42035434 18.33691254 8.92578125 25.47265625 C7.875 27.796875 7.875 27.796875 6.92578125 29.47265625 C7.58578125 30.46265625 8.24578125 31.45265625 8.92578125 32.47265625 C8.92578125 36.47265625 8.92578125 36.47265625 6.92578125 38.66015625 C3.29898042 40.85134842 0.12037882 41.68715272 -4.07421875 41.47265625 C-8.19659446 40.41790778 -10.65656757 39.09913302 -13.07421875 35.47265625 C-12.82671875 33.86390625 -12.82671875 33.86390625 -12.57421875 32.22265625 C-12.00829481 27.97822667 -12.86184542 25.53767272 -14.07421875 21.47265625 C-14.66641996 14.01092098 -13.32067528 8.55351092 -8.88671875 2.47265625 C-5.66319927 0.18037573 -3.88154512 -0.28508523 0 0 Z " fill="#272F59" transform="translate(155.07421875,206.52734375)"/>
<path d="M0 0 C4.45153266 3.90663551 6.67865075 8.42189966 7.203125 14.26171875 C7.32172695 20.39936971 6.30583898 25.31775395 4 31 C4.33 31.33 4.66 31.66 5 32 C5.375 34.375 5.375 34.375 5 37 C1.38179776 40.38476983 -2.22014624 40.29924615 -6.9140625 40.203125 C-9 40 -9 40 -12 39 C-12 38.34 -12 37.68 -12 37 C-12.66 37 -13.32 37 -14 37 C-13.938125 35.88625 -13.87625 34.7725 -13.8125 33.625 C-13.78788909 30.13025075 -14.41610529 27.41827935 -15.5625 24.125 C-17.69227698 17.56407565 -17.13021519 11.96008739 -14.6875 5.5625 C-11.04605768 0.03290241 -6.52583362 -1.79516876 0 0 Z " fill="#283059" transform="translate(77,159)"/>
<path d="M0 0 C4.31339896 2.30047944 6.02774265 5.21691603 7.49609375 9.72265625 C9.08955237 16.92410103 8.19564998 22.47554797 5 29 C5 29.99 5 30.98 5 32 C5 34 5 36 5 38 C-0.50196983 40.14711018 -5.31632113 40.89455962 -11 39 C-11 38.34 -11 37.68 -11 37 C-11.66 37 -12.32 37 -13 37 C-12.93489583 35.046875 -12.86979167 33.09375 -12.8046875 31.140625 C-12.85803718 28.97637281 -12.85803718 28.97637281 -13.98046875 27.21875 C-16.43268184 21.88213301 -15.57240772 14.72974459 -15 9 C-12.14024341 1.39878823 -8.16679286 -1.08367059 0 0 Z " fill="#28305A" transform="translate(107,46)"/>
<path d="M0 0 C1.32 0 2.64 0 4 0 C4 1.98 4 3.96 4 6 C5.32 6 6.64 6 8 6 C10.78309562 10.17464343 11.1696708 14.02556069 11 19 C9.5 22.625 9.5 22.625 7 25 C3.25 25.375 3.25 25.375 0 25 C0 24.34 0 23.68 0 23 C-0.99 23.66 -1.98 24.32 -3 25 C-6.0625 25.125 -6.0625 25.125 -9 25 C-9.66 25 -10.32 25 -11 25 C-14.63 25 -18.26 25 -22 25 C-22 17.41 -22 9.82 -22 2 C-20.35 2 -18.7 2 -17 2 C-16 3 -16 3 -15.90234375 5.94140625 C-15.91394531 7.13636719 -15.92554688 8.33132812 -15.9375 9.5625 C-15.94652344 10.76003906 -15.95554688 11.95757812 -15.96484375 13.19140625 C-15.97644531 14.11824219 -15.98804688 15.04507812 -16 16 C-14.68 16.33 -13.36 16.66 -12 17 C-11.39369882 14.34743233 -11 11.97892751 -11 9.25 C-11 7 -11 7 -10 6 C-7.66702567 5.95907063 -5.33294775 5.95758277 -3 6 C-2.67 6.66 -2.34 7.32 -2 8 C-1.855625 6.865625 -1.71125 5.73125 -1.5625 4.5625 C-1 1 -1 1 0 0 Z M4 13 C5 17 5 17 5 17 Z " fill="#272F59" transform="translate(194,13)"/>
<path d="M0 0 C0.66 0 1.32 0 2 0 C2.0809723 2.43816585 2.14046972 4.87364384 2.1875 7.3125 C2.21263672 8.00279297 2.23777344 8.69308594 2.26367188 9.40429688 C2.33834499 14.55674183 2.33834499 14.55674183 0.48828125 16.98046875 C-0.00285156 17.31691406 -0.49398437 17.65335938 -1 18 C-1.33 15.36 -1.66 12.72 -2 10 C-9.92 10 -17.84 10 -26 10 C-26 8.02 -26 6.04 -26 4 C-22.88248002 3.06285078 -20.25850091 2.94313105 -17.015625 3.12109375 C-15.61376953 3.19360352 -15.61376953 3.19360352 -14.18359375 3.26757812 C-13.21550781 3.32365234 -12.24742188 3.37972656 -11.25 3.4375 C-9.77466797 3.51581055 -9.77466797 3.51581055 -8.26953125 3.59570312 C-5.84601151 3.72511437 -3.42293136 3.86006905 -1 4 C-0.67 2.68 -0.34 1.36 0 0 Z " fill="#232B53" transform="translate(98,137)"/>
<path d="M0 0 C8.58 0 17.16 0 26 0 C26 1.98 26 3.96 26 6 C25.01 6.33 24.02 6.66 23 7 C23 6.34 23 5.68 23 5 C20.22882696 5.14080555 17.45817359 5.28743118 14.6875 5.4375 C13.90181641 5.47681641 13.11613281 5.51613281 12.30664062 5.55664062 C11.1706543 5.61948242 11.1706543 5.61948242 10.01171875 5.68359375 C9.31522217 5.72025146 8.61872559 5.75690918 7.90112305 5.79467773 C5.7783428 5.95581153 5.7783428 5.95581153 3 7 C2.34 10.96 1.68 14.92 1 19 C-1.80916595 14.78625108 -2.10991858 12.35876834 -1.625 7.4375 C-1.53476563 6.46683594 -1.44453125 5.49617187 -1.3515625 4.49609375 C-1 2 -1 2 0 0 Z " fill="#222A4F" transform="translate(158,140)"/>
<path d="M0 0 C3.30133235 0.2676756 4.62503298 0.5603835 6.8125 3.125 C8.29049921 6.70331387 8.41188201 9.15576792 8 13 C6.7128694 15.96040038 5.90193468 17.50539066 3.0625 19.0625 C1 19 1 19 -1.25 17.6875 C-3.90356078 13.61238881 -3.66502992 9.73164963 -3 5 C-1.5 1.875 -1.5 1.875 0 0 Z M2 6 C0.64381501 7.12534105 0.64381501 7.12534105 0.9375 10.0625 C0.958125 11.031875 0.97875 12.00125 1 13 C1.99 12.67 2.98 12.34 4 12 C4 10.35 4 8.7 4 7 C3.34 6.67 2.68 6.34 2 6 Z " fill="#262E59" transform="translate(60,19)"/>
<path d="M0 0 C3.96 0 7.92 0 12 0 C12 1.65 12 3.3 12 5 C10.68 5.33 9.36 5.66 8 6 C8 11.28 8 16.56 8 22 C6.68 22 5.36 22 4 22 C4 16.72 4 11.44 4 6 C2.68 5.67 1.36 5.34 0 5 C0 3.35 0 1.7 0 0 Z " fill="#262E59" transform="translate(66,15)"/>
<path d="M0 0 C1.32 0 2.64 0 4 0 C4 7.26 4 14.52 4 22 C2.68 21.67 1.36 21.34 0 21 C0 14.07 0 7.14 0 0 Z " fill="#283059" transform="translate(52,15)"/>
<path d="M0 0 C1.5003479 0.07069702 1.5003479 0.07069702 3.03100586 0.14282227 C4.1105957 0.19116211 5.19018555 0.23950195 6.30249023 0.28930664 C7.43879883 0.34538086 8.57510742 0.40145508 9.74584961 0.45922852 C11.45611328 0.53753906 11.45611328 0.53753906 13.20092773 0.61743164 C16.02864984 0.74757785 18.85605961 0.8825573 21.68334961 1.02172852 C21.68334961 1.35172852 21.68334961 1.68172852 21.68334961 2.02172852 C16.40334961 2.02172852 11.12334961 2.02172852 5.68334961 2.02172852 C5.68334961 2.68172852 5.68334961 3.34172852 5.68334961 4.02172852 C8.65334961 4.35172852 11.62334961 4.68172852 14.68334961 5.02172852 C14.68334961 5.35172852 14.68334961 5.68172852 14.68334961 6.02172852 C8.71660345 7.34767211 2.75751346 7.11018721 -3.31665039 7.02172852 C-3.35919395 5.02218106 -3.35745822 3.02131215 -3.31665039 1.02172852 C-2.31665039 0.02172852 -2.31665039 0.02172852 0 0 Z " fill="#1E223B" transform="translate(75.316650390625,139.978271484375)"/>
<path d="M0 0 C0.99 0.33 1.98 0.66 3 1 C2.67 4.96 2.34 8.92 2 13 C1.34 13 0.68 13 0 13 C0 20.59 0 28.18 0 36 C-0.33 36 -0.66 36 -1 36 C-1.02465098 31.03377651 -1.04283649 26.06758834 -1.05493164 21.10131836 C-1.0599719 19.41055684 -1.06680405 17.71979971 -1.07543945 16.02905273 C-1.08751857 13.60399293 -1.09323123 11.17899056 -1.09765625 8.75390625 C-1.10281754 7.99348526 -1.10797882 7.23306427 -1.11329651 6.44960022 C-1.11349238 4.6326743 -1.06197277 2.81586873 -1 1 C-0.67 0.67 -0.34 0.34 0 0 Z " fill="#151E68" transform="translate(127,58)"/>
</svg>
